<?xml version="1.0" encoding="utf-8"?>
<!-- Generator: Adobe Illustrator 16.0.0, SVG Export Plug-In . SVG Version: 6.00 Build 0)  -->
<!DOCTYPE svg PUBLIC "-//W3C//DTD SVG 1.1//EN" "http://www.w3.org/Graphics/SVG/1.1/DTD/svg11.dtd">
<svg version="1.1" id="Layer_1" xmlns="http://www.w3.org/2000/svg" xmlns:xlink="http://www.w3.org/1999/xlink" x="0px" y="0px"
	 width="45.551px" height="34.752px" viewBox="0 0 45.551 34.752" enable-background="new 0 0 45.551 34.752" xml:space="preserve">
<path fill="#D24848" d="M22.8,34.752L22.8,34.752L22.8,34.752c-1.729,0-3.281-0.4-4.656-1.2l0,0l0,0
	c-1.377-0.8-2.457-1.896-3.24-3.288l0,0l0,0c-0.783-1.392-1.176-3.016-1.176-4.871l0,0V8.688l0,0c0-0.863-0.209-1.647-0.625-2.352
	l0,0l0,0c-0.416-0.704-0.975-1.264-1.68-1.68l0,0l0,0C10.72,4.24,9.953,4.032,9.121,4.032l0,0l0,0c-0.832,0-1.594,0.208-2.281,0.624
	l0,0l0,0c-0.688,0.416-1.232,0.976-1.631,1.68l0,0l0,0c-0.4,0.704-0.602,1.488-0.602,2.352l0,0v25.488H0V9.313l0,0
	c0-1.761,0.385-3.345,1.152-4.752l0,0l0,0c0.768-1.408,1.84-2.521,3.215-3.336l0,0l0,0C5.744,0.408,7.328,0,9.121,0l0,0l0,0
	c1.822,0,3.424,0.408,4.799,1.225l0,0l0,0c1.377,0.815,2.447,1.928,3.217,3.336l0,0l0,0c0.768,1.407,1.152,2.991,1.152,4.752l0,0
	v16.703l0,0c0,0.896,0.207,1.688,0.623,2.377l0,0l0,0c0.416,0.688,0.969,1.239,1.656,1.655l0,0l0,0
	c0.688,0.416,1.432,0.624,2.232,0.624l0,0l0,0c0.799,0,1.535-0.208,2.207-0.624l0,0l0,0c0.672-0.416,1.209-0.968,1.607-1.655l0,0
	l0,0c0.4-0.688,0.602-1.48,0.602-2.377l0,0V9.313l0,0c0-1.761,0.391-3.345,1.176-4.752l0,0l0,0c0.783-1.408,1.863-2.521,3.24-3.336
	l0,0l0,0C33.007,0.408,34.607,0,36.431,0l0,0l0,0c1.793,0,3.377,0.408,4.752,1.225l0,0l0,0C42.56,2.04,43.632,3.152,44.4,4.561l0,0
	l0,0c0.768,1.407,1.152,2.991,1.152,4.752l0,0v24.863h-4.609V8.688l0,0c0-0.863-0.199-1.647-0.6-2.352l0,0l0,0
	c-0.4-0.704-0.943-1.264-1.631-1.68l0,0l0,0c-0.689-0.416-1.449-0.624-2.281-0.624l0,0l0,0c-0.863,0-1.639,0.208-2.328,0.624l0,0
	l0,0c-0.688,0.416-1.24,0.976-1.656,1.68l0,0l0,0c-0.416,0.704-0.623,1.488-0.623,2.352l0,0v16.705l0,0
	c0,1.855-0.393,3.479-1.176,4.871l0,0l0,0c-0.785,1.393-1.855,2.488-3.217,3.288l0,0l0,0C26.072,34.352,24.527,34.752,22.8,34.752z"
	/>
</svg>
